# xmcd CD database file
#
# Track frame offsets:
#	150
#	17590
#	32562
#	45339
#	63870
#	78033
#	93937
#	119813
#	136466
#	149680
#	164963
#
# Disc length: 2368 seconds
#
# Revision: 0
# Processed by: cddbd v1.5.2PL0 Copyright (c) Steve Scherf et al.
# Submitted via: CDex 1.51
#
DISCID=93093e0b
DTITLE=The Black Keys - Thickfreakness
DYEAR=2003
DGENRE=Blues
TTITLE0=Thickfreakness
TTITLE1=Hard Row
TTITLE2=Set You Free
TTITLE3=Midnight
TTITLE4=Have Love Will Travel
TTITLE5=Hurt kike Mine
TTITLE6=Everywhere I Go
TTITLE7=No Trust
TTITLE8=If You See Me
TTITLE9=Hold Me In Your Arms
TTITLE10=I Cry Alone
EXTD=YEAR: 2003
EXTT0=
EXTT1=
EXTT2=
EXTT3=
EXTT4=
EXTT5=
EXTT6=
EXTT7=
EXTT8=
EXTT9=
EXTT10=
PLAYORDER=
